<mxfile host="Electron" modified="2023-06-19T14:57:36.795Z" agent="Mozilla/5.0 (Windows NT 10.0; Win64; x64) AppleWebKit/537.36 (KHTML, like Gecko) draw.io/21.4.0 Chrome/112.0.5615.204 Electron/24.5.1 Safari/537.36" etag="JfckC9hKGHvZCDvn_L1L" version="21.4.0" type="device">
  <diagram name="第 1 页" id="dW_qAMnmZyA69UdlCSs_">
    <mxGraphModel dx="1970" dy="737" grid="1" gridSize="10" guides="1" tooltips="1" connect="1" arrows="1" fold="1" page="1" pageScale="1" pageWidth="827" pageHeight="1169" math="0" shadow="0">
      <root>
        <mxCell id="0" />
        <mxCell id="1" parent="0" />
        <mxCell id="gxH0CPoFnwY82No3Lds_-3" value="输出" style="ellipse;whiteSpace=wrap;html=1;aspect=fixed;" parent="1" vertex="1">
          <mxGeometry x="600" y="1089" width="80" height="80" as="geometry" />
        </mxCell>
        <mxCell id="gxH0CPoFnwY82No3Lds_-5" style="edgeStyle=orthogonalEdgeStyle;rounded=0;orthogonalLoop=1;jettySize=auto;html=1;exitX=0.5;exitY=1;exitDx=0;exitDy=0;entryX=0.5;entryY=0;entryDx=0;entryDy=0;" parent="1" target="gxH0CPoFnwY82No3Lds_-3" edge="1">
          <mxGeometry relative="1" as="geometry">
            <mxPoint x="640" y="1060" as="sourcePoint" />
          </mxGeometry>
        </mxCell>
        <mxCell id="gxH0CPoFnwY82No3Lds_-8" style="edgeStyle=orthogonalEdgeStyle;rounded=0;orthogonalLoop=1;jettySize=auto;html=1;exitX=0.5;exitY=1;exitDx=0;exitDy=0;" parent="1" source="gxH0CPoFnwY82No3Lds_-9" edge="1">
          <mxGeometry relative="1" as="geometry">
            <mxPoint x="640" y="1000" as="targetPoint" />
          </mxGeometry>
        </mxCell>
        <mxCell id="gxH0CPoFnwY82No3Lds_-9" value="+=大字区" style="rounded=0;whiteSpace=wrap;html=1;" parent="1" vertex="1">
          <mxGeometry x="580" y="911" width="120" height="60" as="geometry" />
        </mxCell>
        <mxCell id="gxH0CPoFnwY82No3Lds_-13" value="+=上标区" style="rhombus;whiteSpace=wrap;html=1;" parent="1" vertex="1">
          <mxGeometry x="576" y="1000" width="130" height="60" as="geometry" />
        </mxCell>
        <mxCell id="gxH0CPoFnwY82No3Lds_-17" style="edgeStyle=orthogonalEdgeStyle;rounded=0;orthogonalLoop=1;jettySize=auto;html=1;exitX=0.5;exitY=1;exitDx=0;exitDy=0;" parent="1" source="gxH0CPoFnwY82No3Lds_-15" target="gxH0CPoFnwY82No3Lds_-9" edge="1">
          <mxGeometry relative="1" as="geometry" />
        </mxCell>
        <mxCell id="gxH0CPoFnwY82No3Lds_-15" value="大字母" style="rhombus;whiteSpace=wrap;html=1;" parent="1" vertex="1">
          <mxGeometry x="470" y="750" width="130" height="60" as="geometry" />
        </mxCell>
        <mxCell id="gxH0CPoFnwY82No3Lds_-18" style="edgeStyle=orthogonalEdgeStyle;rounded=0;orthogonalLoop=1;jettySize=auto;html=1;exitX=0.5;exitY=1;exitDx=0;exitDy=0;entryX=0.5;entryY=0;entryDx=0;entryDy=0;" parent="1" source="gxH0CPoFnwY82No3Lds_-16" target="gxH0CPoFnwY82No3Lds_-9" edge="1">
          <mxGeometry relative="1" as="geometry">
            <mxPoint x="410" y="910" as="targetPoint" />
          </mxGeometry>
        </mxCell>
        <mxCell id="gxH0CPoFnwY82No3Lds_-16" value="字母附标" style="rhombus;whiteSpace=wrap;html=1;" parent="1" vertex="1">
          <mxGeometry x="670" y="750" width="130" height="60" as="geometry" />
        </mxCell>
        <mxCell id="gxH0CPoFnwY82No3Lds_-19" value="给所有大字母添加附标" style="text;html=1;strokeColor=none;fillColor=none;align=center;verticalAlign=middle;whiteSpace=wrap;rounded=0;" parent="1" vertex="1">
          <mxGeometry x="540" y="830" width="196" height="30" as="geometry" />
        </mxCell>
        <mxCell id="gxH0CPoFnwY82No3Lds_-79" style="edgeStyle=orthogonalEdgeStyle;rounded=0;orthogonalLoop=1;jettySize=auto;html=1;exitX=1;exitY=0.5;exitDx=0;exitDy=0;entryX=0.5;entryY=0;entryDx=0;entryDy=0;" parent="1" source="gxH0CPoFnwY82No3Lds_-20" target="gxH0CPoFnwY82No3Lds_-15" edge="1">
          <mxGeometry relative="1" as="geometry" />
        </mxCell>
        <mxCell id="gxH0CPoFnwY82No3Lds_-20" value="元音" style="rounded=0;whiteSpace=wrap;html=1;" parent="1" vertex="1">
          <mxGeometry x="-181" y="690" width="120" height="60" as="geometry" />
        </mxCell>
        <mxCell id="gxH0CPoFnwY82No3Lds_-74" style="edgeStyle=orthogonalEdgeStyle;rounded=0;orthogonalLoop=1;jettySize=auto;html=1;exitX=1;exitY=0.5;exitDx=0;exitDy=0;entryX=0.5;entryY=0;entryDx=0;entryDy=0;" parent="1" source="gxH0CPoFnwY82No3Lds_-22" target="gxH0CPoFnwY82No3Lds_-15" edge="1">
          <mxGeometry relative="1" as="geometry">
            <mxPoint x="450" y="710" as="targetPoint" />
          </mxGeometry>
        </mxCell>
        <mxCell id="gxH0CPoFnwY82No3Lds_-88" style="edgeStyle=orthogonalEdgeStyle;rounded=0;orthogonalLoop=1;jettySize=auto;html=1;exitX=1;exitY=0.5;exitDx=0;exitDy=0;entryX=0.5;entryY=0;entryDx=0;entryDy=0;" parent="1" source="gxH0CPoFnwY82No3Lds_-22" target="gxH0CPoFnwY82No3Lds_-16" edge="1">
          <mxGeometry relative="1" as="geometry" />
        </mxCell>
        <mxCell id="gxH0CPoFnwY82No3Lds_-97" style="edgeStyle=orthogonalEdgeStyle;rounded=0;orthogonalLoop=1;jettySize=auto;html=1;exitX=1;exitY=0.5;exitDx=0;exitDy=0;entryX=1;entryY=0.5;entryDx=0;entryDy=0;" parent="1" source="gxH0CPoFnwY82No3Lds_-22" target="gxH0CPoFnwY82No3Lds_-13" edge="1">
          <mxGeometry relative="1" as="geometry">
            <Array as="points">
              <mxPoint x="1470" y="650" />
              <mxPoint x="1470" y="1030" />
            </Array>
          </mxGeometry>
        </mxCell>
        <mxCell id="gxH0CPoFnwY82No3Lds_-22" value="近音或边近音" style="rounded=0;whiteSpace=wrap;html=1;" parent="1" vertex="1">
          <mxGeometry x="-181" y="620" width="120" height="60" as="geometry" />
        </mxCell>
        <mxCell id="gxH0CPoFnwY82No3Lds_-72" style="edgeStyle=orthogonalEdgeStyle;rounded=0;orthogonalLoop=1;jettySize=auto;html=1;exitX=1;exitY=0.5;exitDx=0;exitDy=0;entryX=0.5;entryY=0;entryDx=0;entryDy=0;" parent="1" source="gxH0CPoFnwY82No3Lds_-23" target="gxH0CPoFnwY82No3Lds_-15" edge="1">
          <mxGeometry relative="1" as="geometry" />
        </mxCell>
        <mxCell id="gxH0CPoFnwY82No3Lds_-96" style="edgeStyle=orthogonalEdgeStyle;rounded=0;orthogonalLoop=1;jettySize=auto;html=1;exitX=1;exitY=0.5;exitDx=0;exitDy=0;entryX=1;entryY=0.5;entryDx=0;entryDy=0;" parent="1" source="gxH0CPoFnwY82No3Lds_-23" target="gxH0CPoFnwY82No3Lds_-13" edge="1">
          <mxGeometry relative="1" as="geometry">
            <Array as="points">
              <mxPoint x="1470" y="580" />
              <mxPoint x="1470" y="1030" />
            </Array>
          </mxGeometry>
        </mxCell>
        <mxCell id="gxH0CPoFnwY82No3Lds_-23" value="擦音或边擦音" style="rounded=0;whiteSpace=wrap;html=1;" parent="1" vertex="1">
          <mxGeometry x="-181" y="550" width="120" height="60" as="geometry" />
        </mxCell>
        <mxCell id="gxH0CPoFnwY82No3Lds_-44" style="edgeStyle=orthogonalEdgeStyle;rounded=0;orthogonalLoop=1;jettySize=auto;html=1;exitX=1;exitY=0.5;exitDx=0;exitDy=0;entryX=0.5;entryY=0;entryDx=0;entryDy=0;" parent="1" source="gxH0CPoFnwY82No3Lds_-24" target="gxH0CPoFnwY82No3Lds_-15" edge="1">
          <mxGeometry relative="1" as="geometry" />
        </mxCell>
        <mxCell id="gxH0CPoFnwY82No3Lds_-24" value="颤音或闪音" style="rounded=0;whiteSpace=wrap;html=1;" parent="1" vertex="1">
          <mxGeometry x="-181" y="480" width="120" height="60" as="geometry" />
        </mxCell>
        <mxCell id="gxH0CPoFnwY82No3Lds_-40" style="edgeStyle=orthogonalEdgeStyle;rounded=0;orthogonalLoop=1;jettySize=auto;html=1;exitX=1;exitY=0.5;exitDx=0;exitDy=0;entryX=0.5;entryY=0;entryDx=0;entryDy=0;" parent="1" source="gxH0CPoFnwY82No3Lds_-25" target="gxH0CPoFnwY82No3Lds_-15" edge="1">
          <mxGeometry relative="1" as="geometry">
            <mxPoint x="250" y="700" as="targetPoint" />
          </mxGeometry>
        </mxCell>
        <mxCell id="gxH0CPoFnwY82No3Lds_-25" value="鼻音" style="rounded=0;whiteSpace=wrap;html=1;" parent="1" vertex="1">
          <mxGeometry x="-181" y="410" width="120" height="60" as="geometry" />
        </mxCell>
        <mxCell id="gxH0CPoFnwY82No3Lds_-37" style="edgeStyle=orthogonalEdgeStyle;rounded=0;orthogonalLoop=1;jettySize=auto;html=1;exitX=1;exitY=0.5;exitDx=0;exitDy=0;entryX=0.5;entryY=0;entryDx=0;entryDy=0;" parent="1" source="gxH0CPoFnwY82No3Lds_-28" target="gxH0CPoFnwY82No3Lds_-15" edge="1">
          <mxGeometry relative="1" as="geometry">
            <mxPoint x="193" y="750" as="targetPoint" />
          </mxGeometry>
        </mxCell>
        <mxCell id="gxH0CPoFnwY82No3Lds_-28" value="塞音" style="rounded=0;whiteSpace=wrap;html=1;" parent="1" vertex="1">
          <mxGeometry x="-181" y="340" width="120" height="60" as="geometry" />
        </mxCell>
        <mxCell id="gxH0CPoFnwY82No3Lds_-30" style="edgeStyle=orthogonalEdgeStyle;rounded=0;orthogonalLoop=1;jettySize=auto;html=1;exitX=1;exitY=0.5;exitDx=0;exitDy=0;entryX=0;entryY=0.5;entryDx=0;entryDy=0;" parent="1" source="gxH0CPoFnwY82No3Lds_-29" target="gxH0CPoFnwY82No3Lds_-28" edge="1">
          <mxGeometry relative="1" as="geometry" />
        </mxCell>
        <mxCell id="gxH0CPoFnwY82No3Lds_-31" style="edgeStyle=orthogonalEdgeStyle;rounded=0;orthogonalLoop=1;jettySize=auto;html=1;exitX=1;exitY=0.5;exitDx=0;exitDy=0;entryX=0;entryY=0.5;entryDx=0;entryDy=0;" parent="1" source="gxH0CPoFnwY82No3Lds_-29" target="gxH0CPoFnwY82No3Lds_-25" edge="1">
          <mxGeometry relative="1" as="geometry" />
        </mxCell>
        <mxCell id="gxH0CPoFnwY82No3Lds_-29" value="塞音或鼻音" style="rounded=0;whiteSpace=wrap;html=1;" parent="1" vertex="1">
          <mxGeometry x="-475" y="370" width="120" height="60" as="geometry" />
        </mxCell>
        <mxCell id="gxH0CPoFnwY82No3Lds_-32" value="读取:鼻" style="text;html=1;strokeColor=none;fillColor=none;align=left;verticalAlign=middle;rounded=0;" parent="1" vertex="1">
          <mxGeometry x="-355" y="370" width="50" height="30" as="geometry" />
        </mxCell>
        <mxCell id="gxH0CPoFnwY82No3Lds_-35" style="edgeStyle=orthogonalEdgeStyle;rounded=0;orthogonalLoop=1;jettySize=auto;html=1;exitX=0.5;exitY=1;exitDx=0;exitDy=0;entryX=0.5;entryY=0;entryDx=0;entryDy=0;" parent="1" source="gxH0CPoFnwY82No3Lds_-34" target="gxH0CPoFnwY82No3Lds_-29" edge="1">
          <mxGeometry relative="1" as="geometry" />
        </mxCell>
        <mxCell id="gxH0CPoFnwY82No3Lds_-55" style="edgeStyle=orthogonalEdgeStyle;rounded=0;orthogonalLoop=1;jettySize=auto;html=1;exitX=0;exitY=0.5;exitDx=0;exitDy=0;entryX=0;entryY=0.5;entryDx=0;entryDy=0;" parent="1" source="gxH0CPoFnwY82No3Lds_-34" target="gxH0CPoFnwY82No3Lds_-54" edge="1">
          <mxGeometry relative="1" as="geometry" />
        </mxCell>
        <mxCell id="gxH0CPoFnwY82No3Lds_-34" value="是否有塞音按钮按下" style="shape=process;whiteSpace=wrap;html=1;backgroundOutline=1;" parent="1" vertex="1">
          <mxGeometry x="-520" y="230" width="210" height="60" as="geometry" />
        </mxCell>
        <mxCell id="gxH0CPoFnwY82No3Lds_-84" style="edgeStyle=orthogonalEdgeStyle;rounded=0;orthogonalLoop=1;jettySize=auto;html=1;exitX=0;exitY=1;exitDx=0;exitDy=0;entryX=0.5;entryY=0;entryDx=0;entryDy=0;" parent="1" source="gxH0CPoFnwY82No3Lds_-41" target="gxH0CPoFnwY82No3Lds_-16" edge="1">
          <mxGeometry relative="1" as="geometry">
            <Array as="points">
              <mxPoint x="735" y="370" />
            </Array>
          </mxGeometry>
        </mxCell>
        <mxCell id="gxH0CPoFnwY82No3Lds_-93" style="edgeStyle=orthogonalEdgeStyle;rounded=0;orthogonalLoop=1;jettySize=auto;html=1;exitX=0;exitY=1;exitDx=0;exitDy=0;entryX=1;entryY=0.5;entryDx=0;entryDy=0;" parent="1" source="gxH0CPoFnwY82No3Lds_-41" target="gxH0CPoFnwY82No3Lds_-13" edge="1">
          <mxGeometry relative="1" as="geometry">
            <Array as="points">
              <mxPoint x="1470" y="370" />
              <mxPoint x="1470" y="1030" />
            </Array>
          </mxGeometry>
        </mxCell>
        <mxCell id="gxH0CPoFnwY82No3Lds_-41" value="读取:(塞)(双唇、唇齿、舌尖、硬腭、腭央、软腭、小舌、声门)、声带、声门、(颤、闪、擦、边擦)(全部)" style="text;html=1;strokeColor=none;fillColor=none;align=center;verticalAlign=middle;whiteSpace=wrap;rounded=0;" parent="1" vertex="1">
          <mxGeometry x="-61" y="340" width="571" height="30" as="geometry" />
        </mxCell>
        <mxCell id="gxH0CPoFnwY82No3Lds_-85" style="edgeStyle=orthogonalEdgeStyle;rounded=0;orthogonalLoop=1;jettySize=auto;html=1;exitX=0;exitY=1;exitDx=0;exitDy=0;entryX=0.5;entryY=0;entryDx=0;entryDy=0;" parent="1" source="gxH0CPoFnwY82No3Lds_-42" target="gxH0CPoFnwY82No3Lds_-16" edge="1">
          <mxGeometry relative="1" as="geometry">
            <mxPoint x="750" y="680" as="targetPoint" />
            <Array as="points">
              <mxPoint x="735" y="440" />
            </Array>
          </mxGeometry>
        </mxCell>
        <mxCell id="gxH0CPoFnwY82No3Lds_-94" style="edgeStyle=orthogonalEdgeStyle;rounded=0;orthogonalLoop=1;jettySize=auto;html=1;exitX=0;exitY=1;exitDx=0;exitDy=0;entryX=1;entryY=0.5;entryDx=0;entryDy=0;" parent="1" source="gxH0CPoFnwY82No3Lds_-42" target="gxH0CPoFnwY82No3Lds_-13" edge="1">
          <mxGeometry relative="1" as="geometry">
            <Array as="points">
              <mxPoint x="1470" y="440" />
              <mxPoint x="1470" y="1030" />
            </Array>
          </mxGeometry>
        </mxCell>
        <mxCell id="gxH0CPoFnwY82No3Lds_-42" value="读取:(塞)(双唇、唇齿、舌尖、硬腭、腭央、软腭、小舌)、(颤、闪、擦、边擦)(全部)" style="text;html=1;strokeColor=none;fillColor=none;align=center;verticalAlign=middle;whiteSpace=wrap;rounded=0;" parent="1" vertex="1">
          <mxGeometry x="-61" y="410" width="461" height="30" as="geometry" />
        </mxCell>
        <mxCell id="gxH0CPoFnwY82No3Lds_-49" style="edgeStyle=orthogonalEdgeStyle;rounded=0;orthogonalLoop=1;jettySize=auto;html=1;exitX=0.5;exitY=1;exitDx=0;exitDy=0;entryX=0.5;entryY=0;entryDx=0;entryDy=0;" parent="1" target="gxH0CPoFnwY82No3Lds_-34" edge="1">
          <mxGeometry relative="1" as="geometry">
            <mxPoint x="-415" y="140" as="sourcePoint" />
          </mxGeometry>
        </mxCell>
        <mxCell id="gxH0CPoFnwY82No3Lds_-53" value="是" style="text;html=1;strokeColor=none;fillColor=none;align=center;verticalAlign=middle;whiteSpace=wrap;rounded=0;" parent="1" vertex="1">
          <mxGeometry x="-410" y="320" width="30" height="30" as="geometry" />
        </mxCell>
        <mxCell id="gxH0CPoFnwY82No3Lds_-56" style="edgeStyle=orthogonalEdgeStyle;rounded=0;orthogonalLoop=1;jettySize=auto;html=1;exitX=1;exitY=0.5;exitDx=0;exitDy=0;entryX=0;entryY=0.5;entryDx=0;entryDy=0;" parent="1" source="gxH0CPoFnwY82No3Lds_-54" target="gxH0CPoFnwY82No3Lds_-24" edge="1">
          <mxGeometry relative="1" as="geometry" />
        </mxCell>
        <mxCell id="gxH0CPoFnwY82No3Lds_-59" style="edgeStyle=orthogonalEdgeStyle;rounded=0;orthogonalLoop=1;jettySize=auto;html=1;exitX=0.5;exitY=1;exitDx=0;exitDy=0;entryX=0.5;entryY=0;entryDx=0;entryDy=0;" parent="1" source="gxH0CPoFnwY82No3Lds_-54" target="gxH0CPoFnwY82No3Lds_-58" edge="1">
          <mxGeometry relative="1" as="geometry" />
        </mxCell>
        <mxCell id="gxH0CPoFnwY82No3Lds_-54" value="是否有颤音或闪音按钮按下" style="shape=process;whiteSpace=wrap;html=1;backgroundOutline=1;" parent="1" vertex="1">
          <mxGeometry x="-520" y="440" width="210" height="60" as="geometry" />
        </mxCell>
        <mxCell id="gxH0CPoFnwY82No3Lds_-57" value="是" style="text;html=1;strokeColor=none;fillColor=none;align=center;verticalAlign=middle;whiteSpace=wrap;rounded=0;" parent="1" vertex="1">
          <mxGeometry x="-310" y="470" width="30" height="30" as="geometry" />
        </mxCell>
        <mxCell id="gxH0CPoFnwY82No3Lds_-61" style="edgeStyle=orthogonalEdgeStyle;rounded=0;orthogonalLoop=1;jettySize=auto;html=1;exitX=1;exitY=0.5;exitDx=0;exitDy=0;entryX=0;entryY=0.5;entryDx=0;entryDy=0;" parent="1" source="gxH0CPoFnwY82No3Lds_-58" target="gxH0CPoFnwY82No3Lds_-23" edge="1">
          <mxGeometry relative="1" as="geometry" />
        </mxCell>
        <mxCell id="gxH0CPoFnwY82No3Lds_-58" value="是否有擦音或边擦音按钮按下" style="shape=process;whiteSpace=wrap;html=1;backgroundOutline=1;" parent="1" vertex="1">
          <mxGeometry x="-520" y="550" width="210" height="60" as="geometry" />
        </mxCell>
        <mxCell id="gxH0CPoFnwY82No3Lds_-60" value="否" style="text;html=1;strokeColor=none;fillColor=none;align=center;verticalAlign=middle;whiteSpace=wrap;rounded=0;" parent="1" vertex="1">
          <mxGeometry x="-410" y="510" width="30" height="30" as="geometry" />
        </mxCell>
        <mxCell id="gxH0CPoFnwY82No3Lds_-62" style="edgeStyle=orthogonalEdgeStyle;rounded=0;orthogonalLoop=1;jettySize=auto;html=1;exitX=0.5;exitY=1;exitDx=0;exitDy=0;entryX=0.5;entryY=0;entryDx=0;entryDy=0;" parent="1" source="gxH0CPoFnwY82No3Lds_-58" target="gxH0CPoFnwY82No3Lds_-63" edge="1">
          <mxGeometry relative="1" as="geometry">
            <mxPoint x="-415" y="610" as="sourcePoint" />
          </mxGeometry>
        </mxCell>
        <mxCell id="gxH0CPoFnwY82No3Lds_-65" style="edgeStyle=orthogonalEdgeStyle;rounded=0;orthogonalLoop=1;jettySize=auto;html=1;exitX=1;exitY=0.5;exitDx=0;exitDy=0;entryX=0;entryY=0.5;entryDx=0;entryDy=0;" parent="1" source="gxH0CPoFnwY82No3Lds_-63" target="gxH0CPoFnwY82No3Lds_-22" edge="1">
          <mxGeometry relative="1" as="geometry" />
        </mxCell>
        <mxCell id="gxH0CPoFnwY82No3Lds_-69" style="edgeStyle=orthogonalEdgeStyle;rounded=0;orthogonalLoop=1;jettySize=auto;html=1;exitX=0.5;exitY=1;exitDx=0;exitDy=0;entryX=0.5;entryY=1;entryDx=0;entryDy=0;" parent="1" source="gxH0CPoFnwY82No3Lds_-63" target="gxH0CPoFnwY82No3Lds_-20" edge="1">
          <mxGeometry relative="1" as="geometry" />
        </mxCell>
        <mxCell id="gxH0CPoFnwY82No3Lds_-63" value="是否有近音或边近音按钮按下" style="shape=process;whiteSpace=wrap;html=1;backgroundOutline=1;" parent="1" vertex="1">
          <mxGeometry x="-520" y="660" width="210" height="60" as="geometry" />
        </mxCell>
        <mxCell id="gxH0CPoFnwY82No3Lds_-64" value="否" style="text;html=1;strokeColor=none;fillColor=none;align=center;verticalAlign=middle;whiteSpace=wrap;rounded=0;" parent="1" vertex="1">
          <mxGeometry x="-410" y="620" width="30" height="30" as="geometry" />
        </mxCell>
        <mxCell id="gxH0CPoFnwY82No3Lds_-66" value="是" style="text;html=1;strokeColor=none;fillColor=none;align=center;verticalAlign=middle;whiteSpace=wrap;rounded=0;" parent="1" vertex="1">
          <mxGeometry x="-310" y="580" width="30" height="30" as="geometry" />
        </mxCell>
        <mxCell id="gxH0CPoFnwY82No3Lds_-67" value="是" style="text;html=1;strokeColor=none;fillColor=none;align=center;verticalAlign=middle;whiteSpace=wrap;rounded=0;" parent="1" vertex="1">
          <mxGeometry x="-310" y="690" width="30" height="30" as="geometry" />
        </mxCell>
        <mxCell id="gxH0CPoFnwY82No3Lds_-70" value="否" style="text;html=1;strokeColor=none;fillColor=none;align=center;verticalAlign=middle;whiteSpace=wrap;rounded=0;" parent="1" vertex="1">
          <mxGeometry x="-410" y="730" width="30" height="30" as="geometry" />
        </mxCell>
        <mxCell id="gxH0CPoFnwY82No3Lds_-86" style="edgeStyle=orthogonalEdgeStyle;rounded=0;orthogonalLoop=1;jettySize=auto;html=1;exitX=0;exitY=1;exitDx=0;exitDy=0;entryX=0.5;entryY=0;entryDx=0;entryDy=0;" parent="1" source="gxH0CPoFnwY82No3Lds_-71" target="gxH0CPoFnwY82No3Lds_-16" edge="1">
          <mxGeometry relative="1" as="geometry">
            <Array as="points">
              <mxPoint x="735" y="510" />
            </Array>
          </mxGeometry>
        </mxCell>
        <mxCell id="gxH0CPoFnwY82No3Lds_-95" style="edgeStyle=orthogonalEdgeStyle;rounded=0;orthogonalLoop=1;jettySize=auto;html=1;exitX=0;exitY=1;exitDx=0;exitDy=0;entryX=1;entryY=0.5;entryDx=0;entryDy=0;" parent="1" source="gxH0CPoFnwY82No3Lds_-71" edge="1" target="gxH0CPoFnwY82No3Lds_-13">
          <mxGeometry relative="1" as="geometry">
            <mxPoint x="520" y="1060" as="targetPoint" />
            <Array as="points">
              <mxPoint x="1470" y="510" />
              <mxPoint x="1470" y="1030" />
            </Array>
          </mxGeometry>
        </mxCell>
        <mxCell id="gxH0CPoFnwY82No3Lds_-71" value="读取:(颤、闪)(双唇、舌尖、小舌)、(擦、边擦)(全部)" style="text;html=1;strokeColor=none;fillColor=none;align=center;verticalAlign=middle;whiteSpace=wrap;rounded=0;" parent="1" vertex="1">
          <mxGeometry x="-60" y="480" width="300" height="30" as="geometry" />
        </mxCell>
        <mxCell id="gxH0CPoFnwY82No3Lds_-87" style="edgeStyle=orthogonalEdgeStyle;rounded=0;orthogonalLoop=1;jettySize=auto;html=1;exitX=0;exitY=1;exitDx=0;exitDy=0;entryX=0.5;entryY=0;entryDx=0;entryDy=0;" parent="1" source="gxH0CPoFnwY82No3Lds_-73" target="gxH0CPoFnwY82No3Lds_-16" edge="1">
          <mxGeometry relative="1" as="geometry">
            <Array as="points">
              <mxPoint x="735" y="580" />
            </Array>
          </mxGeometry>
        </mxCell>
        <mxCell id="gxH0CPoFnwY82No3Lds_-73" value="读取:(擦、边擦)(双唇、唇齿、舌尖、硬腭、腭央、软腭、小舌)、双齿、声带" style="text;html=1;strokeColor=none;fillColor=none;align=center;verticalAlign=middle;whiteSpace=wrap;rounded=0;" parent="1" vertex="1">
          <mxGeometry x="-61" y="550" width="421" height="30" as="geometry" />
        </mxCell>
        <mxCell id="gxH0CPoFnwY82No3Lds_-75" value="读取:(近、边近)(双唇、唇齿、舌尖、硬腭、腭央、软腭、小舌)" style="text;html=1;strokeColor=none;fillColor=none;align=center;verticalAlign=middle;whiteSpace=wrap;rounded=0;" parent="1" vertex="1">
          <mxGeometry x="-61" y="620" width="351" height="30" as="geometry" />
        </mxCell>
        <mxCell id="gxH0CPoFnwY82No3Lds_-90" style="edgeStyle=orthogonalEdgeStyle;rounded=0;orthogonalLoop=1;jettySize=auto;html=1;exitX=0;exitY=1;exitDx=0;exitDy=0;entryX=0.5;entryY=0;entryDx=0;entryDy=0;" parent="1" source="gxH0CPoFnwY82No3Lds_-80" target="gxH0CPoFnwY82No3Lds_-16" edge="1">
          <mxGeometry relative="1" as="geometry">
            <Array as="points">
              <mxPoint x="735" y="720" />
            </Array>
          </mxGeometry>
        </mxCell>
        <mxCell id="gxH0CPoFnwY82No3Lds_-98" style="edgeStyle=orthogonalEdgeStyle;rounded=0;orthogonalLoop=1;jettySize=auto;html=1;exitX=0;exitY=1;exitDx=0;exitDy=0;entryX=1;entryY=0.5;entryDx=0;entryDy=0;" parent="1" source="gxH0CPoFnwY82No3Lds_-80" target="gxH0CPoFnwY82No3Lds_-13" edge="1">
          <mxGeometry relative="1" as="geometry">
            <Array as="points">
              <mxPoint x="1470" y="720" />
              <mxPoint x="1470" y="1030" />
            </Array>
          </mxGeometry>
        </mxCell>
        <mxCell id="gxH0CPoFnwY82No3Lds_-80" value="读取:舌根、圆唇" style="text;html=1;strokeColor=none;fillColor=none;align=center;verticalAlign=middle;whiteSpace=wrap;rounded=0;" parent="1" vertex="1">
          <mxGeometry x="-61" y="690" width="111" height="30" as="geometry" />
        </mxCell>
        <mxCell id="PkPIDo-xZ1YkJjo71wUa-1" value="开始" style="ellipse;whiteSpace=wrap;html=1;aspect=fixed;" vertex="1" parent="1">
          <mxGeometry x="-455" y="60" width="80" height="80" as="geometry" />
        </mxCell>
        <mxCell id="PkPIDo-xZ1YkJjo71wUa-2" value="读取:声带、双齿、鼻、卷舌协同" style="text;html=1;strokeColor=none;fillColor=none;align=center;verticalAlign=middle;whiteSpace=wrap;rounded=0;" vertex="1" parent="1">
          <mxGeometry x="540" y="690" width="190" height="30" as="geometry" />
        </mxCell>
        <mxCell id="PkPIDo-xZ1YkJjo71wUa-3" value="读取:(协同)(双唇、唇齿、齿舌、齿龈、龈颚、下阜、龈后、卷舌、硬腭、腭央、软腭、小舌)、声门" style="text;html=1;strokeColor=none;fillColor=none;align=center;verticalAlign=middle;whiteSpace=wrap;rounded=0;" vertex="1" parent="1">
          <mxGeometry x="740" y="690" width="540" height="30" as="geometry" />
        </mxCell>
        <mxCell id="PkPIDo-xZ1YkJjo71wUa-4" value="读取:声带、双齿、鼻、卷舌协同" style="text;html=1;strokeColor=none;fillColor=none;align=center;verticalAlign=middle;whiteSpace=wrap;rounded=0;" vertex="1" parent="1">
          <mxGeometry x="540" y="620" width="190" height="30" as="geometry" />
        </mxCell>
        <mxCell id="PkPIDo-xZ1YkJjo71wUa-5" value="读取:(协同)(双唇、唇齿、齿舌、齿龈、龈颚、下阜、龈后、卷舌、硬腭、腭央、软腭、小舌)、声门、圆唇" style="text;html=1;strokeColor=none;fillColor=none;align=center;verticalAlign=middle;whiteSpace=wrap;rounded=0;" vertex="1" parent="1">
          <mxGeometry x="740" y="620" width="580" height="30" as="geometry" />
        </mxCell>
        <mxCell id="PkPIDo-xZ1YkJjo71wUa-6" value="读取:双齿、鼻、卷舌协同" style="text;html=1;strokeColor=none;fillColor=none;align=center;verticalAlign=middle;whiteSpace=wrap;rounded=0;" vertex="1" parent="1">
          <mxGeometry x="540" y="550" width="160" height="30" as="geometry" />
        </mxCell>
        <mxCell id="PkPIDo-xZ1YkJjo71wUa-7" value="读取:(协同、近)(双唇、唇齿、齿舌、齿龈、龈颚、下阜、龈后、卷舌、硬腭、腭央、软腭、小舌)、声门、圆唇" style="text;html=1;strokeColor=none;fillColor=none;align=center;verticalAlign=middle;whiteSpace=wrap;rounded=0;" vertex="1" parent="1">
          <mxGeometry x="740" y="550" width="610" height="30" as="geometry" />
        </mxCell>
        <mxCell id="PkPIDo-xZ1YkJjo71wUa-8" value="读取:声带、双齿、鼻、卷舌协同" style="text;html=1;strokeColor=none;fillColor=none;align=center;verticalAlign=middle;whiteSpace=wrap;rounded=0;" vertex="1" parent="1">
          <mxGeometry x="540" y="480" width="190" height="30" as="geometry" />
        </mxCell>
        <mxCell id="PkPIDo-xZ1YkJjo71wUa-9" value="读取:(协同、近)(双唇、唇齿、齿舌、齿龈、龈颚、下阜、龈后、卷舌、硬腭、腭央、软腭、小舌)、声门、圆唇" style="text;html=1;strokeColor=none;fillColor=none;align=center;verticalAlign=middle;whiteSpace=wrap;rounded=0;" vertex="1" parent="1">
          <mxGeometry x="740" y="480" width="610" height="30" as="geometry" />
        </mxCell>
        <mxCell id="PkPIDo-xZ1YkJjo71wUa-11" value="读取:声带、双齿、鼻、卷舌协同" style="text;html=1;strokeColor=none;fillColor=none;align=center;verticalAlign=middle;whiteSpace=wrap;rounded=0;" vertex="1" parent="1">
          <mxGeometry x="540" y="410" width="190" height="30" as="geometry" />
        </mxCell>
        <mxCell id="PkPIDo-xZ1YkJjo71wUa-12" value="读取:(协同、近)(双唇、唇齿、齿舌、齿龈、龈颚、下阜、龈后、卷舌、硬腭、腭央、软腭、小舌)、声门、圆唇" style="text;html=1;strokeColor=none;fillColor=none;align=center;verticalAlign=middle;whiteSpace=wrap;rounded=0;" vertex="1" parent="1">
          <mxGeometry x="740" y="410" width="610" height="30" as="geometry" />
        </mxCell>
        <mxCell id="PkPIDo-xZ1YkJjo71wUa-14" value="读取:双齿、鼻、卷舌协同" style="text;html=1;strokeColor=none;fillColor=none;align=center;verticalAlign=middle;whiteSpace=wrap;rounded=0;" vertex="1" parent="1">
          <mxGeometry x="540" y="340" width="160" height="30" as="geometry" />
        </mxCell>
        <mxCell id="PkPIDo-xZ1YkJjo71wUa-15" value="读取:(协同、近)(双唇、唇齿、齿舌、齿龈、龈颚、下阜、龈后、卷舌、硬腭、腭央、软腭、小舌)、声门、圆唇" style="text;html=1;strokeColor=none;fillColor=none;align=center;verticalAlign=middle;whiteSpace=wrap;rounded=0;" vertex="1" parent="1">
          <mxGeometry x="740" y="340" width="610" height="30" as="geometry" />
        </mxCell>
      </root>
    </mxGraphModel>
  </diagram>
</mxfile>
